Coordinates
version=1
nRows=65
nColumns=12
inDegrees=yes

Units are S.I. units (second, meters, Newtons, ...)
Angles are in degrees

endheader
time	SC_y	SC_z	SC_x	AC_y	AC_z	AC_x	GH_y	GH_z	GH_yy	EL_x	PS_y
       0.0              -17.96           1.95          24.87          63.13          4.698           11.2         -160.3         0.2473          132.7          122.3          32.17
   0.01945              -17.96          1.955          24.87          63.13          4.697           11.2         -160.3         0.2482          132.7          122.3          32.18
    0.0389              -17.96          1.959          24.87          63.13          4.695           11.2         -160.3         0.2492          132.6          122.3           32.2
   0.05835              -17.96          1.964          24.87          63.13          4.694           11.2         -160.3         0.2502          132.6          122.3          32.21
    0.0778              -17.96          1.969          24.87          63.13          4.692           11.2         -160.3         0.2513          132.6          122.3          32.23
   0.09725              -17.96          1.974          24.87          63.13          4.691           11.2         -160.3         0.2525          132.6          122.3          32.24
    0.1167              -17.96           1.98          24.86          63.13          4.689           11.2         -160.3         0.2538          132.5          122.3          32.26
    0.1361              -17.96          1.986          24.86          63.13          4.687           11.2         -160.3         0.2551          132.5          122.3          32.28
    0.1556              -17.96          1.992          24.86          63.13          4.685          11.21         -160.3         0.2566          132.5          122.3           32.3
     0.175              -17.96          1.999          24.86          63.13          4.683          11.21         -160.2         0.2581          132.4          122.3          32.32
    0.1945              -17.96          2.007          24.86          63.13           4.68          11.21         -160.2         0.2598          132.4          122.3          32.34
    0.2139              -17.96          2.015          24.86          63.13          4.678          11.21         -160.2         0.2616          132.3          122.3          32.36
    0.2334              -17.96          2.024          24.85          63.13          4.675          11.21         -160.2         0.2635          132.3          122.3          32.39
    0.2528              -17.96          2.033          24.85          63.13          4.672          11.22         -160.2         0.2656          132.2          122.3          32.42
    0.2723              -17.96          2.043          24.85          63.13          4.669          11.22         -160.2         0.2679          132.2          122.3          32.45
    0.2917              -17.96          2.054          24.85          63.13          4.666          11.22         -160.1         0.2704          132.1          122.3          32.48
    0.3112              -17.95          2.066          24.84          63.13          4.662          11.23         -160.1          0.273          132.1          122.3          32.52
    0.3306              -17.95           2.08          24.84          63.13          4.658          11.23         -160.1         0.2759          132.0          122.3          32.56
    0.3501              -17.95          2.094          24.84          63.13          4.653          11.23         -160.1         0.2791          131.9          122.3           32.6
    0.3695              -17.95           2.11          24.84          63.13          4.648          11.24         -160.0         0.2826          131.8          122.3          32.64
     0.389              -17.95          2.127          24.83          63.13          4.643          11.24         -160.0         0.2864          131.7          122.3           32.7
    0.4084              -17.95          2.146          24.83          63.13          4.637          11.25         -160.0         0.2906          131.6          122.4          32.75
    0.4279              -17.95          2.167          24.82          63.13          4.631          11.25         -159.9         0.2953          131.5          122.4          32.81
    0.4473              -17.95           2.19          24.82          63.13          4.624          11.26         -159.9         0.3004          131.4          122.4          32.88
    0.4668              -17.95          2.216          24.81          63.13          4.616          11.27         -159.8         0.3061          131.3          122.4          32.96
    0.4862              -17.95          2.244           24.8          63.13          4.607          11.27         -159.8         0.3125          131.1          122.4          33.05
    0.5057              -17.95          2.276           24.8          63.13          4.597          11.28         -159.7         0.3197          131.0          122.4          33.14
    0.5251              -17.95          2.313          24.79          63.13          4.585          11.29         -159.7         0.3277          130.8          122.4          33.25
    0.5446              -17.95          2.354          24.78          63.13          4.573           11.3         -159.6         0.3368          130.5          122.4          33.37
     0.564              -17.94            2.4          24.77          63.13          4.558          11.31         -159.5         0.3471          130.3          122.4          33.51
    0.5835              -17.94          2.453          24.76          63.13          4.542          11.33         -159.4         0.3589          130.0          122.5          33.67
    0.6029              -17.94          2.514          24.74          63.13          4.523          11.34         -159.3         0.3724          129.7          122.5          33.85
    0.6224              -17.94          2.584          24.73          63.13          4.501          11.36         -159.2          0.388          129.3          122.5          34.06
    0.6418              -17.94          2.666          24.71          63.13          4.476          11.38         -159.0         0.4061          128.9          122.6           34.3
    0.6613              -17.93          2.761          24.69          63.13          4.446          11.41         -158.8         0.4273          128.4          122.6          34.58
    0.6807              -17.93          2.874          24.66          63.13          4.411          11.44         -158.6         0.4523          127.8          122.6          34.92
    0.7002              -17.92          3.008          24.63          63.13          4.369          11.48         -158.4          0.482          127.1          122.7          35.32
    0.7196              -17.92          3.168           24.6          63.13           4.32          11.52         -158.1         0.5176          126.2          122.8           35.8
    0.7391              -17.91          3.362          24.56          63.13          4.259          11.57         -157.7         0.5607          125.2          122.8          36.37
    0.7585              -17.91          3.599           24.5          63.13          4.186          11.63         -157.3         0.6134          124.0          122.9          37.08
     0.778               -17.9          3.892          24.44          63.14          4.095          11.71         -156.7         0.6783          122.4          123.0          37.95
    0.7974              -17.88          4.257          24.36          63.14          3.981          11.81         -156.0         0.7593          120.5          123.2          39.04
    0.8169              -17.87          4.716          24.25          63.14          3.838          11.93         -155.2         0.8614          118.1          123.4           40.4
    0.8363              -17.85          5.301          24.12          63.14          3.657          12.08         -154.1         0.9911          115.0          123.6          42.14
    0.8558              -17.83          6.048          23.95          63.14          3.424          12.28         -152.7          1.157          111.0          123.9          44.37
    0.8752               -17.8          7.008          23.74          63.14          3.126          12.53         -150.9           1.37          105.9          124.3          47.23
    0.8947              -17.76          8.234          23.47          63.14          2.745          12.86         -148.6          1.642          99.46          124.7          50.88
    0.9141              -17.71          9.775          23.12          63.14          2.266          13.27         -145.8          1.985          91.31          125.3          55.46
    0.9336              -17.65          11.65           22.7          63.14          1.682          13.76         -142.3          2.402          81.38          126.1          61.06
     0.953              -17.58          13.83          22.22          63.14          1.006          14.34         -138.2          2.885          69.87          126.9          67.54
    0.9725               -17.5          16.19          21.69          63.14         0.2731          14.96         -133.8          3.409          57.41          127.8          74.55
    0.9919              -17.42          18.55          21.16          63.14        -0.4596          15.59         -129.4          3.932          44.95          128.8          81.57
     1.011              -17.35          20.72          20.67          63.14         -1.136          16.16         -125.4          4.416          33.44          129.6          88.05
     1.031              -17.29           22.6          20.25          63.14          -1.72          16.66         -121.9          4.833          23.51          130.4          93.65
      1.05              -17.25          24.14          19.91          63.14         -2.199          17.07         -119.0          5.175          15.36          131.0          98.23
      1.07              -17.21          25.37          19.64          63.14          -2.58          17.39         -116.7          5.447          8.878          131.4          101.9
     1.089              -17.17          26.33          19.42          63.14         -2.878          17.65         -114.9           5.66          3.805          131.8          104.7
     1.109              -17.15          27.08          19.25          63.14         -3.111          17.85         -113.6          5.826        -0.1483          132.1          107.0
     1.128              -17.13          27.66          19.12          63.14         -3.292           18.0         -112.5          5.956         -3.237          132.3          108.7
     1.148              -17.12          28.12          19.02          63.14         -3.435          18.12         -111.6          6.058         -5.667          132.5          110.1
     1.167              -17.11          28.49          18.94          63.14         -3.548          18.22         -110.9          6.139         -7.595          132.7          111.2
     1.186               -17.1          28.78          18.87          63.14         -3.639           18.3         -110.4          6.204         -9.142          132.8          112.0
     1.206              -17.09          29.01          18.82          63.14         -3.713          18.36         -109.9          6.257          -10.4          132.9          112.7
     1.225              -17.08          29.21          18.78          63.14         -3.773          18.41         -109.6            6.3         -11.42          132.9          113.3
     1.245              -17.08          29.37          18.74          63.14         -3.823          18.45         -109.3          6.335         -12.27          133.0          113.8
